<?xml version="1.0" encoding="UTF-8" standalone="no"?>
<svg
   xmlns:dc="http://purl.org/dc/elements/1.1/"
   xmlns:cc="http://creativecommons.org/ns#"
   xmlns:rdf="http://www.w3.org/1999/02/22-rdf-syntax-ns#"
   xmlns:svg="http://www.w3.org/2000/svg"
   xmlns="http://www.w3.org/2000/svg"
   xmlns:sodipodi="http://sodipodi.sourceforge.net/DTD/sodipodi-0.dtd"
   xmlns:inkscape="http://www.inkscape.org/namespaces/inkscape"
   version="1.1"
   id="Capa_1"
   x="0px"
   y="0px"
   viewBox="0 0 512 512"
   style="enable-background:new 0 0 512 512;"
   xml:space="preserve"
   sodipodi:docname="pokeball_small.svg"
   inkscape:version="0.92.4 (5da689c313, 2019-01-14)"><metadata
   id="metadata32"><rdf:RDF><cc:Work
       rdf:about=""><dc:format>image/svg+xml</dc:format><dc:type
         rdf:resource="http://purl.org/dc/dcmitype/StillImage" /></cc:Work></rdf:RDF></metadata><defs
   id="defs30"><linearGradient
     id="SVGID_1_-2"
     gradientUnits="userSpaceOnUse"
     x1="-45.5784"
     y1="639.55499"
     x2="-23.827801"
     y2="629.41382"
     gradientTransform="matrix(15.941538,0,0,-15.941538,1376.3853,10374.628)"><stop
       offset="0"
       style="stop-color:#FFFFFF;stop-opacity:0.2"
       id="stop16-3" /><stop
       offset="1"
       style="stop-color:#FFFFFF;stop-opacity:0"
       id="stop18-1" /></linearGradient></defs><sodipodi:namedview
   pagecolor="#ffffff"
   bordercolor="#666666"
   borderopacity="1"
   objecttolerance="10"
   gridtolerance="10"
   guidetolerance="10"
   inkscape:pageopacity="0"
   inkscape:pageshadow="2"
   inkscape:window-width="1920"
   inkscape:window-height="1017"
   id="namedview28"
   showgrid="false"
   inkscape:zoom="1.84375"
   inkscape:cx="326.13138"
   inkscape:cy="261.56168"
   inkscape:window-x="-8"
   inkscape:window-y="-8"
   inkscape:window-maximized="1"
   inkscape:current-layer="Capa_1" />







<linearGradient
   id="SVGID_1_"
   gradientUnits="userSpaceOnUse"
   x1="-45.5784"
   y1="639.555"
   x2="-23.8278"
   y2="629.4138"
   gradientTransform="matrix(21.365259,0,0,-21.365259,997.82601,13811.561)">
	<stop
   offset="0"
   style="stop-color:#FFFFFF;stop-opacity:0.2"
   id="stop16" />
	<stop
   offset="1"
   style="stop-color:#FFFFFF;stop-opacity:0"
   id="stop18" />
</linearGradient>



<g
   id="g95"
   transform="matrix(0.91352597,0,0,0.91352597,-495.5974,18.140411)"><path
     inkscape:connector-curvature="0"
     id="path2-5"
     d="m 823.16318,68.656702 c -105.48035,0 -191.29877,85.818428 -191.29877,191.298768 0,105.48035 85.81842,191.29877 191.29877,191.29877 105.48034,0 191.29872,-85.81842 191.29872,-191.29877 0,-105.48034 -85.81838,-191.298768 -191.29872,-191.298768 z"
     style="fill:#303c42;stroke-width:0.74726081" /><path
     inkscape:connector-curvature="0"
     id="path4-8"
     d="m 823.16318,84.59802 c 90.79816,0 165.67894,69.37346 174.4727,157.89547 -12.97394,2.87321 -45.93113,8.87595 -95.57765,9.42145 -4.09798,-40.13089 -37.70081,-71.66829 -78.89505,-71.66829 -41.19425,0 -74.79707,31.53666 -78.89505,71.66829 -49.64652,-0.5455 -82.6037,-6.54824 -95.57765,-9.42145 8.79377,-88.52127 83.67453,-157.89547 174.4727,-157.89547 z"
     style="fill:#e53935;stroke-width:0.74726081" /><circle
     r="63.766006"
     id="circle6-7"
     cy="259.95547"
     cx="823.16321"
     style="fill:#455a64;stroke-width:0.74726081" /><path
     inkscape:connector-curvature="0"
     id="path8-4"
     d="m 823.16318,435.31292 c -96.69255,0 -175.35745,-78.6649 -175.35745,-175.35745 0,-0.44537 0.0642,-0.87504 0.0672,-1.31966 15.17687,3.23115 47.99208,8.62863 96.37421,9.15469 4.00309,40.23029 37.65075,71.87229 78.91598,71.87229 41.26523,0 74.91289,-31.642 78.91598,-71.87229 48.38214,-0.52606 81.19735,-5.92354 96.37423,-9.15469 0.003,0.44462 0.0672,0.87355 0.0672,1.31966 0,96.69255 -78.66489,175.35745 -175.35745,175.35745 z"
     style="fill:#ffffff;stroke-width:0.74726081" /><circle
     r="47.824692"
     id="circle10-1"
     cy="259.95547"
     cx="823.16321"
     style="fill:#303c42;stroke-width:0.74726081" /><circle
     r="31.883379"
     id="circle12-8"
     cy="259.95547"
     cx="823.16321"
     style="fill:#f2f2f2;stroke-width:0.74726081" /><path
     inkscape:connector-curvature="0"
     id="path14-6"
     d="m 797.58968,269.58617 c 0,-17.5838 14.29882,-31.88338 31.88337,-31.88338 9.12778,0 17.31329,3.90369 23.13071,10.06934 -4.79592,-11.54967 -16.17297,-19.70004 -29.44058,-19.70004 -17.5838,0 -31.88338,14.29883 -31.88338,31.88338 0,8.45601 3.36342,16.10198 8.75192,21.8133 -1.56028,-3.75724 -2.44204,-7.86642 -2.44204,-12.1826 z"
     style="opacity:0.2;fill:#ffffff;stroke-width:0.74726081;enable-background:new" /><path
     inkscape:connector-curvature="0"
     id="path21-1"
     d="m 823.16318,68.656702 c -105.48035,0 -191.29877,85.818428 -191.29877,191.298768 0,105.48035 85.81842,191.29877 191.29877,191.29877 105.48034,0 191.29872,-85.81842 191.29872,-191.29877 0,-105.48034 -85.81838,-191.298768 -191.29872,-191.298768 z"
     style="fill:url(#SVGID_1_-2);stroke-width:0.74726081" /><path
     inkscape:connector-curvature="0"
     id="path23-7"
     d="m 964.20119,247.99706 c 15.72909,-1.91 27.03589,-4.08528 33.43469,-5.50357 -4.33486,-43.63631 -24.77768,-82.56933 -55.22033,-110.88379 15.29268,26.01514 24.22171,56.19699 24.22171,88.49211 0,9.51487 -0.96994,18.78763 -2.43607,27.89525 z"
     style="opacity:0.1;stroke-width:0.74726081;enable-background:new" /><path
     inkscape:connector-curvature="0"
     id="path25-0"
     d="m 998.45339,258.63581 c -7.87913,1.67759 -20.61395,3.92835 -37.71202,5.78903 -19.71275,75.26186 -88.10653,131.03368 -169.46157,131.03368 -46.17249,0 -88.10802,-18.07325 -119.45636,-47.34719 30.44565,52.05792 86.80256,87.20159 151.33974,87.20159 96.69256,0 175.35746,-78.6649 175.35746,-175.35745 0,-0.44537 -0.0642,-0.87504 -0.0672,-1.31966 z"
     style="opacity:0.1;stroke-width:0.74726081;enable-background:new" /></g></svg>